<svg width="395" height="62" viewBox="0 0 395 62" fill="none" xmlns="http://www.w3.org/2000/svg">
<path d="M13 30C13 37.36 14.84 43.0667 18.52 47.12C22.2533 51.1733 26.8933 53.2 32.44 53.2C36.6 53.2 42.4667 51.28 50.04 47.44L53 51.76C49 54.3733 46.2533 56.08 44.76 56.88C43.32 57.68 41.0533 58.56 37.96 59.52C34.92 60.48 31.88 60.96 28.84 60.96C21.1067 60.96 14.52 58.3733 9.08 53.2C3.64 48.0267 0.92 41.0933 0.92 32.4C0.92 23.7067 4.04 16.64 10.28 11.2C16.5733 5.76 24.36 3.04 33.64 3.04C39.88 3.04 45.9067 4.42667 51.72 7.2C51.0267 10.56 49.5067 13.84 47.16 17.04C43.48 14.32 40.1467 12.4533 37.16 11.44C34.1733 10.3733 31.4267 9.84 28.92 9.84C26.4667 9.84 24.3333 9.97333 22.52 10.24C19.7467 12.16 17.4533 14.7733 15.64 18.08C13.88 21.3867 13 25.36 13 30ZM81.4619 44C79.5419 43.3067 77.4085 42.96 75.0619 42.96C72.7685 42.96 71.0085 43.3867 69.7819 44.24C68.9819 45.2533 68.5819 46.5867 68.5819 48.24C68.5819 52.4 70.3952 54.48 74.0219 54.48C77.0085 54.48 79.4885 53.2533 81.4619 50.8V44ZM70.7419 61.44C67.3819 61.44 64.4219 60.4267 61.8619 58.4C59.3019 56.3733 58.0219 53.44 58.0219 49.6C58.0219 42.1867 63.4352 38.48 74.2619 38.48L81.3819 38.8V33.92C81.3819 31.1467 80.6885 28.9067 79.3019 27.2C77.9152 25.4933 75.7819 24.64 72.9019 24.64C72.2619 24.64 71.4352 24.9867 70.4219 25.68C69.4085 26.32 68.5552 26.9867 67.8619 27.68C65.6752 29.76 63.9152 31.4667 62.5819 32.8C59.9152 29.6533 58.4752 26.48 58.2619 23.28C65.0885 21.1467 70.8485 20.08 75.5419 20.08C80.2352 20.08 84.1552 21.1733 87.3019 23.36C90.4485 25.5467 92.0219 28.9867 92.0219 33.68V46.24C92.0219 48.64 92.4219 50.9333 93.2219 53.12C94.0219 55.3067 95.0085 56.7733 96.1819 57.52L96.3419 59.28L84.9019 61.68C84.0485 60.08 83.2485 57.84 82.5019 54.96C81.1152 56.4533 79.9952 57.5733 79.1419 58.32C78.2885 59.0133 77.0885 59.7067 75.5419 60.4C74.0485 61.0933 72.4485 61.44 70.7419 61.44ZM120.643 54.8C123.683 54.8 125.203 53.3333 125.203 50.4C125.203 47.68 122.616 45.6267 117.443 44.24C115.309 43.6533 113.176 42.9867 111.043 42.24C108.909 41.4933 107.096 40.2933 105.603 38.64C104.109 36.9867 103.363 34.88 103.363 32.32C103.363 28.64 105.016 25.7867 108.323 23.76C111.629 21.68 115.656 20.64 120.403 20.64C125.149 20.64 130.109 21.7867 135.283 24.08C135.016 26.4267 133.576 29.2533 130.963 32.56C128.829 30.4267 126.616 28.8 124.323 27.68C122.029 26.56 120.029 26 118.323 26C116.616 26 115.309 26.1867 114.403 26.56C113.603 27.2533 113.203 28.4 113.203 30C113.203 31.5467 113.949 32.7467 115.443 33.6C116.989 34.4533 118.856 35.1467 121.043 35.68C123.229 36.16 125.416 36.7733 127.603 37.52C129.789 38.2667 131.629 39.5467 133.123 41.36C134.669 43.12 135.443 45.44 135.443 48.32C135.443 52.48 133.816 55.6267 130.563 57.76C127.363 59.84 123.096 60.88 117.763 60.88C112.429 60.88 107.336 59.36 102.483 56.32C102.696 53.12 103.896 50.16 106.083 47.44C111.363 52.3467 116.216 54.8 120.643 54.8ZM156.795 44.96C156.795 50.9867 157.462 55.4133 158.795 58.24V60H145.115V58.24C146.022 55.3067 146.475 51.44 146.475 46.64V15.2C146.475 10.6133 145.275 7.17333 142.875 4.88V3.12L156.075 0.319996L157.035 2.08C156.875 3.57333 156.795 8.8 156.795 17.76V26.56C159.568 24.3733 161.968 22.7467 163.995 21.68C166.022 20.6133 168.208 20.08 170.555 20.08C174.822 20.08 178.102 21.3333 180.395 23.84C182.688 26.2933 183.835 29.8667 183.835 34.56V44.72C183.835 50 184.635 54.5067 186.235 58.24V60H172.155V58.24C173.062 55.7333 173.515 52.1333 173.515 47.44V37.44C173.515 34.2933 173.088 32 172.235 30.56C171.435 29.12 169.675 28.4 166.955 28.4C164.288 28.4 160.902 29.52 156.795 31.76V44.96Z" fill="white"/>
<path d="M230.672 11.6C227.685 10.7467 224.165 10.32 220.112 10.32C216.112 10.32 213.499 10.3733 212.272 10.48C212.112 12.0267 212.032 17.92 212.032 28.16L230.432 27.76L227.472 35.28H225.952C223.392 34.7467 220.672 34.48 217.792 34.48C214.912 34.48 212.992 34.5333 212.032 34.64V42.08C212.032 49.6533 212.459 55.04 213.312 58.24V60H199.312V58.24C200.219 54.4 200.672 49.04 200.672 42.16V21.92C200.672 14.9867 200.219 9.6 199.312 5.76V4L234.512 3.76L232.192 11.6H230.672ZM244.546 60V58.24C245.4 54.56 245.826 49.28 245.826 42.4V21.68C245.826 14.2667 245.4 8.96 244.546 5.76V4H258.466V5.76C258.093 6.98666 257.773 9.49333 257.506 13.28C257.293 17.0667 257.186 19.9467 257.186 21.92V43.28C257.186 47.1733 257.346 50.72 257.666 53.92C258.68 54.0267 260.786 54.08 263.986 54.08C272.413 54.08 278.653 53.2267 282.706 51.52H284.226L282.786 60H244.546ZM306.065 61.52C299.878 61.52 294.998 59.7067 291.425 56.08C287.905 52.4533 286.145 47.68 286.145 41.76C286.145 35.84 288.198 30.7733 292.305 26.56C296.412 22.2933 301.638 20.16 307.985 20.16C314.385 20.16 319.265 21.9467 322.625 25.52C326.038 29.04 327.745 33.7867 327.745 39.76C327.745 45.7333 325.692 50.8533 321.585 55.12C317.478 59.3867 312.305 61.52 306.065 61.52ZM316.225 41.76C316.225 36.5867 315.478 32.56 313.985 29.68C312.492 26.7467 309.878 25.28 306.145 25.28C303.745 25.28 301.878 25.8667 300.545 27.04C299.692 28.2667 298.998 30.1067 298.465 32.56C297.932 35.0133 297.665 37.3867 297.665 39.68C297.665 50.8267 301.212 56.4 308.305 56.4C310.438 56.4 312.172 55.84 313.505 54.72C314.412 53.4933 315.078 51.6267 315.505 49.12C315.985 46.56 316.225 44.1067 316.225 41.76ZM344.177 21.76C344.177 22.9867 345.324 26.96 347.617 33.68L352.417 47.28C354.124 42.48 355.51 38.6933 356.577 35.92C357.59 33.3067 358.524 30.4533 359.377 27.36C358.257 24.96 357.43 23.5467 356.897 23.12V21.36L369.057 20.8V22C369.057 23.4933 370.23 27.5733 372.577 34.24L377.297 47.28C380.71 36.6133 382.684 30.32 383.217 28.4C383.804 26.4267 384.097 24.2667 384.097 21.92V21.12H394.977L394.897 22.96C393.457 23.9733 392.07 26.5867 390.737 30.8L382.417 56.4L381.377 60.72L372.097 60.88L370.657 56.24L363.697 38.4L357.217 56.48L356.337 60.72L347.297 60.88L345.857 56.24L335.377 30.4C334.63 28.5867 333.804 27.0133 332.897 25.68C332.044 24.3467 331.35 23.5467 330.817 23.28V21.52L344.177 20.56V21.76Z" fill="#1F7843"/>
</svg>
